SC Light Italic Display 1292 - 158.ufo
<glyph name="A" format="1">
  <advance width="1180"/>
  <unicode hex="0041"/>
  <outline>
    <contour>
      <point x="705" y="1292" type="move" name="top"/>
    </contour>
    <contour>
      <point x="999" y="17" type="move" name="ogonek"/>
    </contour>
    <contour>
      <point x="513" y="0" type="move" name="bottom"/>
    </contour>
    <contour>
      <point x="-88" y="31" type="line"/>
      <point x="-92" y="0" type="line"/>
      <point x="298" y="0" type="line"/>
      <point x="302" y="31" type="line"/>
      <point x="136" y="54" type="line"/>
      <point x="636" y="1112" type="line"/>
      <point x="696" y="1243" type="line"/>
      <point x="662" y="1246" type="line"/>
      <point x="680" y="1075" type="line"/>
      <point x="867" y="58" type="line"/>
      <point x="708" y="31" type="line"/>
      <point x="701" y="0" type="line"/>
      <point x="1154" y="0" type="line"/>
      <point x="1157" y="31" type="line"/>
      <point x="1030" y="54" type="line"/>
      <point x="784" y="1302" type="line"/>
      <point x="658" y="1302" type="line"/>
      <point x="38" y="52" type="line"/>
    </contour>
    <contour>
      <point x="281" y="480" type="line"/>
      <point x="281" y="422" type="line"/>
      <point x="861" y="422" type="line"/>
      <point x="860" y="480" type="line"/>
    </contour>
  </outline>
</glyph>
<glyph name="B" format="1">
  <advance width="1116"/>
  <unicode hex="0042"/>
  <outline>
    <contour>
      <point x="622" y="1292" type="move" name="top"/>
    </contour>
    <contour>
      <point x="455" y="0" type="move" name="bottom"/>
    </contour>
    <contour>
      <point x="-27" y="31" type="line"/>
      <point x="-32" y="0" type="line"/>
      <point x="185" y="0" type="line" smooth="yes"/>
      <point x="251" y="0"/>
      <point x="357" y="-12"/>
      <point x="434" y="-12" type="curve"/>
      <point x="794" y="-12"/>
      <point x="1044" y="116"/>
      <point x="1042" y="399" type="curve"/>
      <point x="1040" y="565"/>
      <point x="915" y="658"/>
      <point x="731" y="668" type="curve"/>
      <point x="914" y="714"/>
      <point x="1042" y="848"/>
      <point x="1037" y="1035" type="curve"/>
      <point x="1034" y="1178"/>
      <point x="931" y="1306"/>
      <point x="632" y="1306" type="curve"/>
      <point x="534" y="1306"/>
      <point x="457" y="1294"/>
      <point x="372" y="1292" type="curve"/>
      <point x="148" y="1292" type="line"/>
      <point x="143" y="1261" type="line"/>
      <point x="269" y="1234" type="line"/>
      <point x="107" y="59" type="line"/>
    </contour>
    <contour>
      <point x="455" y="32" type="curve"/>
      <point x="376" y="32"/>
      <point x="256" y="53"/>
      <point x="245" y="64" type="curve"/>
      <point x="261" y="35" type="line"/>
      <point x="346" y="651" type="line"/>
      <point x="307" y="640" type="line"/>
      <point x="387" y="642"/>
      <point x="451" y="641"/>
      <point x="568" y="641" type="curve"/>
      <point x="755" y="641"/>
      <point x="876" y="567"/>
      <point x="879" y="399" type="curve"/>
      <point x="883" y="158"/>
      <point x="725" y="32"/>
    </contour>
    <contour>
      <point x="590" y="690" type="curve"/>
      <point x="481" y="691"/>
      <point x="376" y="689"/>
      <point x="316" y="690" type="curve"/>
      <point x="348" y="664" type="line"/>
      <point x="433" y="1279" type="line"/>
      <point x="397" y="1241" type="line"/>
      <point x="429" y="1251"/>
      <point x="565" y="1261"/>
      <point x="600" y="1261" type="curve"/>
      <point x="813" y="1261"/>
      <point x="876" y="1154"/>
      <point x="879" y="1018" type="curve"/>
      <point x="884" y="810"/>
      <point x="735" y="689"/>
    </contour>
  </outline>
</glyph>
<glyph name="C" format="1">
  <advance width="1135"/>
  <unicode hex="0043"/>
  <outline>
    <contour>
      <point x="761" y="1292" type="move" name="top"/>
    </contour>
    <contour>
      <point x="579" y="0" type="move" name="bottom"/>
    </contour>
    <contour>
      <point x="595" y="-14" type="curve"/>
      <point x="773" y="-14"/>
      <point x="900" y="41"/>
      <point x="971" y="62" type="curve"/>
      <point x="1008" y="345" type="line"/>
      <point x="938" y="345" type="line"/>
      <point x="920" y="283"/>
      <point x="903" y="196"/>
      <point x="884" y="136" type="curve"/>
      <point x="847" y="77"/>
      <point x="705" y="33"/>
      <point x="625" y="33" type="curve"/>
      <point x="337" y="33"/>
      <point x="256" y="281"/>
      <point x="248" y="542" type="curve"/>
      <point x="239" y="877"/>
      <point x="391" y="1260"/>
      <point x="731" y="1260" type="curve"/>
      <point x="861" y="1260"/>
      <point x="924" y="1223"/>
      <point x="964" y="1198" type="curve"/>
      <point x="975" y="940" type="line"/>
      <point x="1046" y="940" type="line"/>
      <point x="1099" y="1254" type="line"/>
      <point x="1036" y="1262"/>
      <point x="921" y="1306"/>
      <point x="747" y="1306" type="curve"/>
      <point x="373" y="1306"/>
      <point x="70" y="995"/>
      <point x="83" y="532" type="curve"/>
      <point x="91" y="267"/>
      <point x="205" y="-14"/>
    </contour>
  </outline>
</glyph>
<glyph name="D" format="1">
  <advance width="1211"/>
  <unicode hex="0044"/>
  <outline>
    <contour>
      <point x="652" y="1290" type="move" name="top"/>
    </contour>
    <contour>
      <point x="485" y="0" type="move" name="bottom"/>
    </contour>
    <contour>
      <point x="-27" y="31" type="line"/>
      <point x="-32" y="0" type="line"/>
      <point x="186" y="0" type="line" smooth="yes"/>
      <point x="333" y="0"/>
      <point x="386" y="-14"/>
      <point x="517" y="-14" type="curve"/>
      <point x="945" y="-14"/>
      <point x="1188" y="350"/>
      <point x="1185" y="784" type="curve"/>
      <point x="1179" y="1093"/>
      <point x="1031" y="1306"/>
      <point x="657" y="1306" type="curve"/>
      <point x="570" y="1306"/>
      <point x="482" y="1294"/>
      <point x="392" y="1292" type="curve"/>
      <point x="148" y="1292" type="line"/>
      <point x="143" y="1261" type="line"/>
      <point x="268" y="1234" type="line"/>
      <point x="106" y="59" type="line"/>
    </contour>
    <contour>
      <point x="514" y="32" type="curve"/>
      <point x="397" y="32"/>
      <point x="306" y="54"/>
      <point x="225" y="75" type="curve"/>
      <point x="259" y="24" type="line"/>
      <point x="431" y="1266" type="line"/>
      <point x="394" y="1227" type="line"/>
      <point x="444" y="1241"/>
      <point x="543" y="1260"/>
      <point x="623" y="1260" type="curve"/>
      <point x="907" y="1260"/>
      <point x="1014" y="1091"/>
      <point x="1022" y="773" type="curve"/>
      <point x="1025" y="407"/>
      <point x="841" y="32"/>
    </contour>
  </outline>
</glyph>
<glyph name="E" format="1">
  <advance width="1077"/>
  <unicode hex="0045"/>
  <outline>
    <contour>
      <point x="132" y="1292" type="move" name="topleft"/>
    </contour>
    <contour>
      <point x="652" y="1292" type="move" name="top"/>
    </contour>
    <contour>
      <point x="908" y="9" type="move" name="ogonek"/>
    </contour>
    <contour>
      <point x="477" y="0" type="move" name="bottom"/>
    </contour>
    <contour>
      <point x="-27" y="31" type="line"/>
      <point x="-32" y="0" type="line"/>
      <point x="926" y="0" type="line"/>
      <point x="1003" y="282" type="line"/>
      <point x="938" y="297" type="line"/>
      <point x="831" y="81" type="line"/>
      <point x="264" y="58" type="line"/>
      <point x="344" y="637" type="line"/>
      <point x="773" y="625" type="line"/>
      <point x="784" y="704" type="line"/>
      <point x="352" y="694" type="line"/>
      <point x="426" y="1236" type="line"/>
      <point x="889" y="1218" type="line"/>
      <point x="933" y="1022" type="line"/>
      <point x="986" y="1022" type="line"/>
      <point x="992" y="1292" type="line"/>
      <point x="148" y="1292" type="line"/>
      <point x="143" y="1261" type="line"/>
      <point x="268" y="1234" type="line"/>
      <point x="106" y="59" type="line"/>
    </contour>
  </outline>
</glyph>
<glyph name="F" format="1">
  <advance width="929"/>
  <unicode hex="0046"/>
  <outline>
    <contour>
      <point x="529" y="-143" type="move" name="btm"/>
    </contour>
    <contour>
      <point x="650" y="1292" type="move" name="top"/>
    </contour>
    <contour>
      <point x="975" y="1292" type="line"/>
      <point x="148" y="1292" type="line"/>
      <point x="143" y="1261" type="line"/>
      <point x="268" y="1234" type="line"/>
      <point x="106" y="59" type="line"/>
      <point x="-27" y="31" type="line"/>
      <point x="-32" y="0" type="line"/>
      <point x="474" y="0" type="line"/>
      <point x="478" y="31" type="line"/>
      <point x="264" y="60" type="line"/>
      <point x="344" y="637" type="line"/>
      <point x="755" y="625" type="line"/>
      <point x="767" y="704" type="line"/>
      <point x="352" y="694" type="line"/>
      <point x="426" y="1235" type="line"/>
      <point x="870" y="1217" type="line"/>
      <point x="916" y="1022" type="line"/>
      <point x="969" y="1022" type="line"/>
    </contour>
  </outline>
</glyph>
<glyph name="G" format="1">
  <advance width="1237"/>
  <unicode hex="0047"/>
  <outline>
    <contour>
      <point x="754" y="1292" type="move" name="top"/>
    </contour>
    <contour>
      <point x="615" y="0" type="move" name="bottom"/>
    </contour>
    <contour>
      <point x="604" y="-14" type="curve"/>
      <point x="719" y="-14"/>
      <point x="822" y="23"/>
      <point x="896" y="46" type="curve"/>
      <point x="962" y="66"/>
      <point x="997" y="75"/>
      <point x="1032" y="78" type="curve"/>
      <point x="1109" y="616" type="line"/>
      <point x="734" y="616" type="line"/>
      <point x="728" y="563" type="line"/>
      <point x="953" y="549" type="line"/>
      <point x="896" y="132" type="line"/>
      <point x="831" y="80"/>
      <point x="714" y="32"/>
      <point x="613" y="32" type="curve"/>
      <point x="353" y="32"/>
      <point x="254" y="281"/>
      <point x="247" y="542" type="curve"/>
      <point x="238" y="878"/>
      <point x="389" y="1260"/>
      <point x="749" y="1260" type="curve"/>
      <point x="908" y="1260"/>
      <point x="972" y="1221"/>
      <point x="1019" y="1191" type="curve"/>
      <point x="1027" y="993" type="line"/>
      <point x="1098" y="993" type="line"/>
      <point x="1145" y="1254" type="line"/>
      <point x="1135" y="1256"/>
      <point x="1124" y="1258"/>
      <point x="1110" y="1260" type="curve"/>
      <point x="1043" y="1275"/>
      <point x="935" y="1306"/>
      <point x="765" y="1306" type="curve"/>
      <point x="371" y="1306"/>
      <point x="68" y="996"/>
      <point x="82" y="532" type="curve"/>
      <point x="89" y="267"/>
      <point x="203" y="-14"/>
    </contour>
  </outline>
</glyph>
<glyph name="H" format="1">
  <advance width="1279"/>
  <unicode hex="0048"/>
  <outline>
    <contour>
      <point x="757" y="1292" type="move" name="top"/>
    </contour>
    <contour>
      <point x="578" y="0" type="move" name="bottom"/>
    </contour>
    <contour>
      <point x="-27" y="31" type="line"/>
      <point x="-32" y="0" type="line"/>
      <point x="396" y="0" type="line"/>
      <point x="400" y="31" type="line"/>
      <point x="264" y="59" type="line"/>
      <point x="426" y="1234" type="line"/>
      <point x="552" y="1261" type="line"/>
      <point x="556" y="1292" type="line"/>
      <point x="148" y="1292" type="line"/>
      <point x="143" y="1261" type="line"/>
      <point x="268" y="1234" type="line"/>
      <point x="106" y="59" type="line"/>
    </contour>
    <contour>
      <point x="760" y="31" type="line"/>
      <point x="756" y="0" type="line"/>
      <point x="1183" y="0" type="line"/>
      <point x="1188" y="31" type="line"/>
      <point x="1053" y="59" type="line"/>
      <point x="1214" y="1234" type="line"/>
      <point x="1339" y="1261" type="line"/>
      <point x="1344" y="1292" type="line"/>
      <point x="936" y="1292" type="line"/>
      <point x="931" y="1261" type="line"/>
      <point x="1056" y="1234" type="line"/>
      <point x="895" y="59" type="line"/>
    </contour>
    <contour>
      <point x="340" y="694" type="line"/>
      <point x="308" y="640" type="line"/>
      <point x="1001" y="636" type="line"/>
      <point x="1033" y="690" type="line"/>
    </contour>
  </outline>
</glyph>
<glyph name="I" format="1">
  <advance width="524"/>
  <unicode hex="0049"/>
  <outline>
    <contour>
      <point x="377" y="-143" type="move" name="btm"/>
    </contour>
    <contour>
      <point x="154" y="1292" type="move" name="topleft"/>
    </contour>
    <contour>
      <point x="381" y="1292" type="move" name="top"/>
    </contour>
    <contour>
      <point x="348" y="17" type="move" name="ogonek"/>
    </contour>
    <contour>
      <point x="208" y="0" type="move" name="bottom"/>
    </contour>
    <contour>
      <point x="-11" y="31" type="line"/>
      <point x="-16" y="0" type="line"/>
      <point x="412" y="0" type="line"/>
      <point x="416" y="31" type="line"/>
      <point x="280" y="59" type="line"/>
      <point x="442" y="1234" type="line"/>
      <point x="568" y="1261" type="line"/>
      <point x="572" y="1292" type="line"/>
      <point x="164" y="1292" type="line"/>
      <point x="159" y="1261" type="line"/>
      <point x="284" y="1234" type="line"/>
      <point x="122" y="59" type="line"/>
    </contour>
  </outline>
</glyph>
<glyph name="J" format="1">
  <advance width="554"/>
  <unicode hex="004A"/>
  <outline>
    <contour>
      <point x="253" y="-143" type="move" name="btm"/>
    </contour>
    <contour>
      <point x="424" y="1292" type="move" name="top"/>
    </contour>
    <contour>
      <point x="-172" y="-231" type="curve"/>
      <point x="-152" y="-269" type="line"/>
      <point x="44" y="-238"/>
      <point x="251" y="-138"/>
      <point x="299" y="68" type="curve"/>
      <point x="334" y="218"/>
      <point x="393" y="663"/>
      <point x="455" y="1230" type="curve"/>
      <point x="601" y="1261" type="line"/>
      <point x="605" y="1292" type="line"/>
      <point x="176" y="1292" type="line"/>
      <point x="172" y="1261" type="line"/>
      <point x="301" y="1233" type="line"/>
      <point x="260" y="863"/>
      <point x="214" y="359"/>
      <point x="155" y="80" type="curve"/>
      <point x="126" y="-59"/>
      <point x="27" y="-181"/>
    </contour>
  </outline>
</glyph>
<glyph name="K" format="1">
  <advance width="1198"/>
  <unicode hex="004B"/>
  <outline>
    <contour>
      <point x="736" y="1292" type="move" name="top"/>
    </contour>
    <contour>
      <point x="615" y="0" type="move" name="bottom"/>
    </contour>
    <contour>
      <point x="-27" y="31" type="line"/>
      <point x="-32" y="0" type="line"/>
      <point x="395" y="0" type="line"/>
      <point x="400" y="31" type="line"/>
      <point x="264" y="59" type="line"/>
      <point x="426" y="1234" type="line"/>
      <point x="552" y="1261" type="line"/>
      <point x="556" y="1292" type="line"/>
      <point x="148" y="1292" type="line"/>
      <point x="143" y="1261" type="line"/>
      <point x="268" y="1234" type="line"/>
      <point x="106" y="59" type="line"/>
    </contour>
    <contour>
      <point x="308" y="509" type="line"/>
      <point x="299" y="420" type="line"/>
      <point x="1090" y="1238" type="line"/>
      <point x="1215" y="1261" type="line"/>
      <point x="1221" y="1292" type="line"/>
      <point x="852" y="1292" type="line"/>
      <point x="848" y="1261" type="line"/>
      <point x="992" y="1237" type="line"/>
    </contour>
    <contour>
      <point x="887" y="0" type="curve"/>
      <point x="1113" y="0" type="line"/>
      <point x="1118" y="32" type="line"/>
      <point x="1015" y="59" type="line"/>
      <point x="979" y="83"/>
      <point x="915" y="196"/>
      <point x="819" y="360" type="curve"/>
      <point x="761" y="460"/>
      <point x="645" y="644"/>
      <point x="594" y="733" type="curve"/>
      <point x="496" y="637" type="line"/>
      <point x="542" y="557"/>
      <point x="633" y="389"/>
      <point x="689" y="290" type="curve"/>
      <point x="759" y="170"/>
      <point x="843" y="3"/>
    </contour>
  </outline>
</glyph>
<glyph name="L" format="1">
  <advance width="980"/>
  <unicode hex="004C"/>
  <outline>
    <contour>
      <point x="754" y="965" type="move" name="car"/>
    </contour>
    <contour>
      <point x="356" y="1292" type="move" name="top"/>
    </contour>
    <contour>
      <point x="463" y="0" type="move" name="bottom"/>
    </contour>
    <contour>
      <point x="-27" y="31" type="line"/>
      <point x="-32" y="0" type="line"/>
      <point x="845" y="0" type="line"/>
      <point x="933" y="377" type="line"/>
      <point x="867" y="389" type="line"/>
      <point x="750" y="81" type="line"/>
      <point x="264" y="58" type="line"/>
      <point x="425" y="1232" type="line"/>
      <point x="570" y="1261" type="line"/>
      <point x="574" y="1292" type="line"/>
      <point x="148" y="1292" type="line"/>
      <point x="143" y="1261" type="line"/>
      <point x="268" y="1234" type="line"/>
      <point x="106" y="59" type="line"/>
    </contour>
  </outline>
</glyph>
<glyph name="M" format="1">
  <advance width="1668"/>
  <unicode hex="004D"/>
  <outline>
    <contour>
      <point x="914" y="1292" type="move" name="top"/>
    </contour>
    <contour>
      <point x="740" y="0" type="move" name="bottom"/>
    </contour>
    <contour>
      <point x="1302" y="1292" type="line"/>
      <point x="886" y="404" type="line"/>
      <point x="798" y="207" type="line"/>
      <point x="768" y="407" type="line"/>
      <point x="602" y="1292" type="line"/>
      <point x="254" y="1292" type="line"/>
      <point x="250" y="1262" type="line"/>
      <point x="395" y="1233" type="line"/>
      <point x="106" y="53" type="line"/>
      <point x="-29" y="31" type="line"/>
      <point x="-33" y="0" type="line"/>
      <point x="359" y="0" type="line"/>
      <point x="362" y="31" type="line"/>
      <point x="198" y="54" type="line"/>
      <point x="396" y="902" type="line"/>
      <point x="468" y="1228" type="line"/>
      <point x="533" y="885" type="line"/>
      <point x="681" y="0" type="line"/>
      <point x="776" y="0" type="line"/>
      <point x="1200" y="905" type="line"/>
      <point x="1336" y="1218" type="line"/>
      <point x="1316" y="865" type="line"/>
      <point x="1294" y="59" type="line"/>
      <point x="1125" y="31" type="line"/>
      <point x="1121" y="0" type="line"/>
      <point x="1600" y="0" type="line"/>
      <point x="1603" y="31" type="line"/>
      <point x="1452" y="60" type="line"/>
      <point x="1470" y="1239" type="line"/>
      <point x="1616" y="1261" type="line"/>
      <point x="1621" y="1292" type="line"/>
    </contour>
  </outline>
</glyph>
<glyph name="N" format="1">
  <advance width="1212"/>
  <unicode hex="004E"/>
  <outline>
    <contour>
      <point x="775" y="1292" type="move" name="top"/>
    </contour>
    <contour>
      <point x="643" y="0" type="move" name="bottom"/>
    </contour>
    <contour>
      <point x="-27" y="31" type="line"/>
      <point x="-31" y="0" type="line"/>
      <point x="331" y="0" type="line"/>
      <point x="335" y="31" type="line"/>
      <point x="195" y="60" type="line"/>
      <point x="328" y="1233" type="line"/>
      <point x="302" y="1230" type="line"/>
      <point x="403" y="956" type="line"/>
      <point x="865" y="0" type="line"/>
      <point x="985" y="0" type="line"/>
      <point x="1157" y="1232" type="line"/>
      <point x="1290" y="1261" type="line"/>
      <point x="1294" y="1292" type="line"/>
      <point x="932" y="1292" type="line"/>
      <point x="927" y="1261" type="line"/>
      <point x="1067" y="1232" type="line"/>
      <point x="936" y="77" type="line"/>
      <point x="967" y="83" type="line"/>
      <point x="872" y="338" type="line"/>
      <point x="413" y="1292" type="line"/>
      <point x="148" y="1292" type="line"/>
      <point x="143" y="1261" type="line"/>
      <point x="269" y="1234" type="line"/>
      <point x="105" y="60" type="line"/>
    </contour>
  </outline>
</glyph>
<glyph name="O" format="1">
  <advance width="1201"/>
  <unicode hex="004F"/>
  <outline>
    <contour>
      <point x="133" y="1292" type="move" name="topleft"/>
    </contour>
    <contour>
      <point x="626" y="646" type="move" name="center"/>
    </contour>
    <contour>
      <point x="537" y="0" type="move" name="bottom"/>
    </contour>
    <contour>
      <point x="714" y="1292" type="move" name="top"/>
    </contour>
    <contour>
      <point x="1281" y="1292" type="move" name="topright"/>
    </contour>
    <contour>
      <point x="1000" y="9" type="move" name="ogonek"/>
    </contour>
    <contour>
      <point x="545" y="-19" type="curve"/>
      <point x="922" y="-19"/>
      <point x="1174" y="328"/>
      <point x="1171" y="769" type="curve"/>
      <point x="1168" y="1094"/>
      <point x="1019" y="1307"/>
      <point x="709" y="1307" type="curve"/>
      <point x="337" y="1307"/>
      <point x="77" y="971"/>
      <point x="81" y="526" type="curve"/>
      <point x="84" y="192"/>
      <point x="240" y="-19"/>
    </contour>
    <contour>
      <point x="566" y="25" type="curve"/>
      <point x="363" y="25"/>
      <point x="247" y="220"/>
      <point x="244" y="529" type="curve"/>
      <point x="241" y="944"/>
      <point x="428" y="1262"/>
      <point x="689" y="1262" type="curve"/>
      <point x="897" y="1262"/>
      <point x="1005" y="1079"/>
      <point x="1007" y="764" type="curve"/>
      <point x="1011" y="368"/>
      <point x="826" y="25"/>
    </contour>
  </outline>
</glyph>
<glyph name="P" format="1">
  <advance width="1085"/>
  <unicode hex="0050"/>
  <outline>
    <contour>
      <point x="209" y="-144" type="move" name="btm"/>
    </contour>
    <contour>
      <point x="659" y="1292" type="move" name="top"/>
    </contour>
    <contour>
      <point x="-27" y="31" type="line"/>
      <point x="-32" y="0" type="line"/>
      <point x="474" y="0" type="line"/>
      <point x="478" y="31" type="line"/>
      <point x="264" y="60" type="line"/>
      <point x="429" y="1257" type="line"/>
      <point x="390" y="1237" type="line"/>
      <point x="447" y="1245"/>
      <point x="554" y="1260"/>
      <point x="609" y="1260" type="curve"/>
      <point x="800" y="1260"/>
      <point x="890" y="1169"/>
      <point x="890" y="966" type="curve"/>
      <point x="890" y="699"/>
      <point x="766" y="541"/>
      <point x="502" y="541" type="curve"/>
      <point x="452" y="541"/>
      <point x="366" y="554"/>
      <point x="313" y="566" type="curve"/>
      <point x="303" y="510" type="line"/>
      <point x="356" y="502"/>
      <point x="422" y="495"/>
      <point x="500" y="495" type="curve"/>
      <point x="820" y="495"/>
      <point x="1065" y="649"/>
      <point x="1057" y="974" type="curve"/>
      <point x="1052" y="1198"/>
      <point x="905" y="1306"/>
      <point x="635" y="1306" type="curve"/>
      <point x="536" y="1306"/>
      <point x="455" y="1292"/>
      <point x="357" y="1292" type="curve"/>
      <point x="148" y="1292" type="line"/>
      <point x="143" y="1261" type="line"/>
      <point x="268" y="1234" type="line"/>
      <point x="106" y="59" type="line"/>
    </contour>
  </outline>
</glyph>
<glyph name="Q" format="1">
  <advance width="1201"/>
  <unicode hex="0051"/>
  <outline>
    <contour>
      <point x="819" y="-299" type="curve"/>
      <point x="925" y="-299"/>
      <point x="1032" y="-260"/>
      <point x="1076" y="-226" type="curve"/>
      <point x="1074" y="-139" type="line"/>
      <point x="1019" y="-163"/>
      <point x="931" y="-181"/>
      <point x="868" y="-181" type="curve"/>
      <point x="730" y="-181"/>
      <point x="599" y="-156"/>
      <point x="596" y="-10" type="curve"/>
      <point x="560" y="-15" type="line"/>
      <point x="495" y="-201"/>
      <point x="610" y="-299"/>
    </contour>
    <contour>
      <point x="545" y="-19" type="curve"/>
      <point x="922" y="-19"/>
      <point x="1174" y="328"/>
      <point x="1171" y="769" type="curve"/>
      <point x="1168" y="1094"/>
      <point x="1019" y="1307"/>
      <point x="709" y="1307" type="curve"/>
      <point x="337" y="1307"/>
      <point x="77" y="971"/>
      <point x="81" y="526" type="curve"/>
      <point x="84" y="192"/>
      <point x="240" y="-19"/>
    </contour>
    <contour>
      <point x="566" y="25" type="curve"/>
      <point x="363" y="25"/>
      <point x="247" y="220"/>
      <point x="244" y="529" type="curve"/>
      <point x="241" y="944"/>
      <point x="428" y="1262"/>
      <point x="689" y="1262" type="curve"/>
      <point x="897" y="1262"/>
      <point x="1005" y="1079"/>
      <point x="1007" y="764" type="curve"/>
      <point x="1011" y="368"/>
      <point x="826" y="25"/>
    </contour>
  </outline>
</glyph>
<glyph name="R" format="1">
  <advance width="1157"/>
  <unicode hex="0052"/>
  <outline>
    <contour>
      <point x="668" y="1292" type="move" name="top"/>
    </contour>
    <contour>
      <point x="626" y="0" type="move" name="bottom"/>
    </contour>
    <contour>
      <point x="-27" y="31" type="line"/>
      <point x="-32" y="0" type="line"/>
      <point x="439" y="0" type="line"/>
      <point x="443" y="31" type="line"/>
      <point x="263" y="59" type="line"/>
      <point x="428" y="1258" type="line"/>
      <point x="390" y="1236" type="line"/>
      <point x="447" y="1245"/>
      <point x="554" y="1259"/>
      <point x="608" y="1259" type="curve"/>
      <point x="800" y="1259"/>
      <point x="883" y="1171"/>
      <point x="889" y="1006" type="curve"/>
      <point x="894" y="844"/>
      <point x="771" y="669"/>
      <point x="559" y="661" type="curve"/>
      <point x="523" y="659"/>
      <point x="375" y="661"/>
      <point x="330" y="663" type="curve"/>
      <point x="320" y="615" type="line"/>
      <point x="371" y="613"/>
      <point x="517" y="615"/>
      <point x="536" y="615" type="curve"/>
      <point x="614" y="612"/>
      <point x="688" y="390"/>
      <point x="792" y="133" type="curve"/>
      <point x="828" y="45"/>
      <point x="863" y="0"/>
      <point x="893" y="0" type="curve"/>
      <point x="1084" y="0" type="line"/>
      <point x="1089" y="32" type="line"/>
      <point x="1000" y="32"/>
      <point x="976" y="93"/>
      <point x="899" y="288" type="curve"/>
      <point x="858" y="393"/>
      <point x="757" y="645"/>
      <point x="620" y="635" type="curve"/>
      <point x="606" y="618" type="line"/>
      <point x="893" y="668"/>
      <point x="1055" y="819"/>
      <point x="1050" y="1014" type="curve"/>
      <point x="1045" y="1213"/>
      <point x="916" y="1306"/>
      <point x="612" y="1306" type="curve"/>
      <point x="529" y="1306"/>
      <point x="449" y="1292"/>
      <point x="369" y="1292" type="curve"/>
      <point x="148" y="1292" type="line"/>
      <point x="143" y="1261" type="line"/>
      <point x="268" y="1234" type="line"/>
      <point x="106" y="59" type="line"/>
    </contour>
  </outline>
</glyph>
<glyph name="S" format="1">
  <advance width="893"/>
  <unicode hex="0053"/>
  <outline>
    <contour>
      <point x="556" y="1292" type="move" name="top"/>
    </contour>
    <contour>
      <point x="376" y="0" type="move" name="bottom"/>
    </contour>
    <contour>
      <point x="356" y="-19" type="curve"/>
      <point x="622" y="-19"/>
      <point x="819" y="124"/>
      <point x="814" y="356" type="curve"/>
      <point x="811" y="537"/>
      <point x="666" y="625"/>
      <point x="528" y="709" type="curve"/>
      <point x="406" y="784"/>
      <point x="279" y="854"/>
      <point x="280" y="1011" type="curve"/>
      <point x="280" y="1170"/>
      <point x="415" y="1261"/>
      <point x="558" y="1261" type="curve"/>
      <point x="666" y="1261"/>
      <point x="724" y="1227"/>
      <point x="762" y="1198" type="curve"/>
      <point x="772" y="1012" type="line"/>
      <point x="837" y="1012" type="line"/>
      <point x="876" y="1237" type="line"/>
      <point x="825" y="1264"/>
      <point x="700" y="1306"/>
      <point x="564" y="1306" type="curve"/>
      <point x="315" y="1306"/>
      <point x="136" y="1177"/>
      <point x="139" y="950" type="curve"/>
      <point x="143" y="769"/>
      <point x="309" y="675"/>
      <point x="442" y="592" type="curve"/>
      <point x="558" y="520"/>
      <point x="668" y="447"/>
      <point x="664" y="294" type="curve"/>
      <point x="659" y="100"/>
      <point x="496" y="26"/>
      <point x="361" y="26" type="curve"/>
      <point x="255" y="26"/>
      <point x="178" y="67"/>
      <point x="128" y="100" type="curve"/>
      <point x="118" y="296" type="line"/>
      <point x="48" y="296" type="line"/>
      <point x="7" y="56" type="line"/>
      <point x="52" y="25"/>
      <point x="215" y="-19"/>
    </contour>
  </outline>
</glyph>
<glyph name="T" format="1">
  <advance width="1176"/>
  <unicode hex="0054"/>
  <outline>
    <contour>
      <point x="683" y="1292" type="move" name="top"/>
    </contour>
    <contour>
      <point x="517" y="0" type="move" name="bottom"/>
    </contour>
    <contour>
      <point x="1188" y="1292" type="line"/>
      <point x="172" y="1292" type="line"/>
      <point x="103" y="926" type="line"/>
      <point x="167" y="927" type="line"/>
      <point x="268" y="1223" type="line"/>
      <point x="604" y="1236" type="line"/>
      <point x="443" y="59" type="line"/>
      <point x="251" y="31" type="line"/>
      <point x="247" y="0" type="line"/>
      <point x="790" y="0" type="line"/>
      <point x="795" y="31" type="line"/>
      <point x="601" y="59" type="line"/>
      <point x="762" y="1236" type="line"/>
      <point x="1073" y="1223" type="line"/>
      <point x="1098" y="924" type="line"/>
      <point x="1158" y="926" type="line"/>
    </contour>
  </outline>
</glyph>
<glyph name="U" format="1">
  <advance width="1235"/>
  <unicode hex="0055"/>
  <outline>
    <contour>
      <point x="732" y="1292" type="move" name="top"/>
    </contour>
    <contour>
      <point x="735" y="17" type="move" name="ogonek"/>
    </contour>
    <contour>
      <point x="1136" y="1292" type="move" name="topright"/>
    </contour>
    <contour>
      <point x="572" y="0" type="move" name="bottom"/>
    </contour>
    <contour>
      <point x="1083" y="532" type="curve"/>
      <point x="1171" y="1235" type="line"/>
      <point x="1295" y="1261" type="line"/>
      <point x="1299" y="1292" type="line"/>
      <point x="960" y="1292" type="line"/>
      <point x="955" y="1261" type="line"/>
      <point x="1091" y="1234" type="line"/>
      <point x="1016" y="532" type="line" smooth="yes"/>
      <point x="980" y="193"/>
      <point x="818" y="50"/>
      <point x="596" y="50" type="curve"/>
      <point x="379" y="50"/>
      <point x="302" y="187"/>
      <point x="300" y="378" type="curve"/>
      <point x="300" y="422"/>
      <point x="303" y="468"/>
      <point x="309" y="516" type="curve"/>
      <point x="407" y="1234" type="line"/>
      <point x="543" y="1261" type="line"/>
      <point x="547" y="1292" type="line"/>
      <point x="132" y="1292" type="line"/>
      <point x="127" y="1261" type="line"/>
      <point x="247" y="1235" type="line"/>
      <point x="148" y="506" type="line" smooth="yes"/>
      <point x="143" y="467"/>
      <point x="141" y="429"/>
      <point x="141" y="393" type="curve"/>
      <point x="144" y="140"/>
      <point x="275" y="-17"/>
      <point x="569" y="-17" type="curve"/>
      <point x="866" y="-17"/>
      <point x="1035" y="153"/>
    </contour>
  </outline>
</glyph>
<glyph name="V" format="1">
  <advance width="1105"/>
  <unicode hex="0056"/>
  <outline>
    <contour>
      <point x="725" y="1443" type="move" name="top"/>
    </contour>
    <contour>
      <point x="165" y="1238" type="line"/>
      <point x="411" y="-16" type="line"/>
      <point x="537" y="-9" type="line"/>
      <point x="1134" y="1241" type="line"/>
      <point x="1242" y="1261" type="line"/>
      <point x="1247" y="1292" type="line"/>
      <point x="881" y="1292" type="line"/>
      <point x="877" y="1261" type="line"/>
      <point x="1040" y="1239" type="line"/>
      <point x="589" y="250" type="line"/>
      <point x="497" y="48" type="line"/>
      <point x="531" y="45" type="line"/>
      <point x="510" y="221" type="line"/>
      <point x="325" y="1234" type="line"/>
      <point x="498" y="1261" type="line"/>
      <point x="505" y="1292" type="line"/>
      <point x="67" y="1292" type="line"/>
      <point x="64" y="1261" type="line"/>
    </contour>
  </outline>
</glyph>
<glyph name="W" format="1">
  <advance width="1665"/>
  <unicode hex="0057"/>
  <outline>
    <contour>
      <point x="953" y="1292" type="move" name="top"/>
    </contour>
    <contour>
      <point x="772" y="0" type="move" name="bottom"/>
    </contour>
    <contour>
      <point x="830" y="1238" type="line"/>
      <point x="1020" y="-16" type="line"/>
      <point x="1146" y="-9" type="line"/>
      <point x="1702" y="1241" type="line"/>
      <point x="1810" y="1261" type="line"/>
      <point x="1815" y="1292" type="line"/>
      <point x="1440" y="1292" type="line"/>
      <point x="1437" y="1261" type="line"/>
      <point x="1608" y="1239" type="line"/>
      <point x="1187" y="240" type="line"/>
      <point x="1106" y="48" type="line"/>
      <point x="1137" y="46" type="line"/>
      <point x="1108" y="303" type="line"/>
      <point x="990" y="1234" type="line"/>
      <point x="1137" y="1261" type="line"/>
      <point x="1144" y="1292" type="line"/>
      <point x="706" y="1292" type="line"/>
      <point x="702" y="1261" type="line"/>
    </contour>
    <contour>
      <point x="161" y="1238" type="line"/>
      <point x="374" y="-16" type="line"/>
      <point x="500" y="-9" type="line"/>
      <point x="985" y="1101" type="line"/>
      <point x="898" y="1099" type="line"/>
      <point x="529" y="222" type="line"/>
      <point x="457" y="48" type="line"/>
      <point x="495" y="46" type="line"/>
      <point x="463" y="303" type="line"/>
      <point x="321" y="1234" type="line"/>
      <point x="489" y="1261" type="line"/>
      <point x="493" y="1292" type="line"/>
      <point x="64" y="1292" type="line"/>
      <point x="60" y="1261" type="line"/>
    </contour>
  </outline>
</glyph>
<glyph name="X" format="1">
  <advance width="1152"/>
  <unicode hex="0058"/>
  <outline>
    <contour>
      <point x="712" y="1443" type="move" name="top"/>
    </contour>
    <contour>
      <point x="512" y="0" type="move" name="bottom"/>
    </contour>
    <contour>
      <point x="-52" y="31" type="line"/>
      <point x="-55" y="0" type="line"/>
      <point x="330" y="0" type="line"/>
      <point x="334" y="31" type="line"/>
      <point x="182" y="58" type="line"/>
      <point x="591" y="618" type="line"/>
      <point x="633" y="640" type="line"/>
      <point x="1112" y="1237" type="line"/>
      <point x="1246" y="1261" type="line"/>
      <point x="1248" y="1292" type="line"/>
      <point x="865" y="1292" type="line"/>
      <point x="860" y="1261" type="line"/>
      <point x="1010" y="1234" type="line"/>
      <point x="622" y="715" type="line"/>
      <point x="576" y="693" type="line"/>
      <point x="78" y="55" type="line"/>
    </contour>
    <contour>
      <point x="632" y="31" type="line"/>
      <point x="627" y="0" type="line"/>
      <point x="1089" y="0" type="line"/>
      <point x="1093" y="31" type="line"/>
      <point x="962" y="58" type="line"/>
      <point x="661" y="677" type="line"/>
      <point x="646" y="710" type="line"/>
      <point x="410" y="1237" type="line"/>
      <point x="565" y="1261" type="line"/>
      <point x="569" y="1292" type="line"/>
      <point x="116" y="1292" type="line"/>
      <point x="112" y="1261" type="line"/>
      <point x="237" y="1234" type="line"/>
      <point x="536" y="612" type="line"/>
      <point x="544" y="595" type="line"/>
      <point x="783" y="55" type="line"/>
    </contour>
  </outline>
</glyph>
<glyph name="Y" format="1">
  <advance width="1023"/>
  <unicode hex="0059"/>
  <outline>
    <contour>
      <point x="446" y="-144" type="move" name="btm"/>
    </contour>
    <contour>
      <point x="112" y="1292" type="move" name="topleft"/>
    </contour>
    <contour>
      <point x="626" y="1292" type="move" name="top"/>
    </contour>
    <contour>
      <point x="434" y="0" type="move" name="bottom"/>
    </contour>
    <contour>
      <point x="202" y="31" type="line"/>
      <point x="197" y="0" type="line"/>
      <point x="741" y="0" type="line"/>
      <point x="745" y="31" type="line"/>
      <point x="549" y="61" type="line"/>
      <point x="619" y="572" type="line"/>
      <point x="557" y="446" type="line"/>
      <point x="1060" y="1244" type="line"/>
      <point x="1166" y="1261" type="line"/>
      <point x="1169" y="1292" type="line"/>
      <point x="829" y="1292" type="line"/>
      <point x="824" y="1261" type="line"/>
      <point x="962" y="1243" type="line"/>
      <point x="637" y="702" type="line"/>
      <point x="538" y="532" type="line"/>
      <point x="587" y="531" type="line"/>
      <point x="531" y="706" type="line"/>
      <point x="324" y="1242" type="line"/>
      <point x="478" y="1261" type="line"/>
      <point x="482" y="1292" type="line"/>
      <point x="61" y="1292" type="line"/>
      <point x="56" y="1261" type="line"/>
      <point x="156" y="1243" type="line"/>
      <point x="484" y="440" type="line"/>
      <point x="461" y="570" type="line"/>
      <point x="391" y="59" type="line"/>
    </contour>
  </outline>
</glyph>
<glyph name="Z" format="1">
  <advance width="1092"/>
  <unicode hex="005A"/>
  <outline>
    <contour>
      <point x="648" y="1292" type="move" name="top"/>
    </contour>
    <contour>
      <point x="497" y="0" type="move" name="bottom"/>
    </contour>
    <contour>
      <point x="1098" y="1292" type="line"/>
      <point x="231" y="1292" type="line"/>
      <point x="179" y="993" type="line"/>
      <point x="238" y="985" type="line"/>
      <point x="341" y="1222" type="line"/>
      <point x="933" y="1236" type="line"/>
      <point x="761" y="1042" type="line"/>
      <point x="-24" y="28" type="line"/>
      <point x="-9" y="0" type="line"/>
      <point x="928" y="0" type="line"/>
      <point x="1010" y="315" type="line"/>
      <point x="943" y="332" type="line"/>
      <point x="831" y="92" type="line"/>
      <point x="152" y="56" type="line"/>
      <point x="308" y="228" type="line"/>
      <point x="1111" y="1265" type="line"/>
    </contour>
  </outline>
</glyph>
<glyph name="Ezh" format="1">
  <advance width="1074"/>
  <outline>
    <contour>
      <point x="648" y="1292" type="move" name="top"/>
    </contour>
    <contour>
      <point x="423" y="-14" type="curve"/>
      <point x="750" y="-14"/>
      <point x="988" y="131"/>
      <point x="986" y="397" type="curve"/>
      <point x="985" y="543"/>
      <point x="892" y="721"/>
      <point x="669" y="721" type="curve"/>
      <point x="666" y="698" type="line"/>
      <point x="1102" y="1261" type="line"/>
      <point x="1080" y="1292" type="line"/>
      <point x="227" y="1292" type="line"/>
      <point x="176" y="991" type="line"/>
      <point x="234" y="985" type="line"/>
      <point x="336" y="1222" type="line"/>
      <point x="923" y="1238" type="line"/>
      <point x="754" y="1043" type="line"/>
      <point x="492" y="701" type="line"/>
      <point x="519" y="672" type="line"/>
      <point x="537" y="684"/>
      <point x="575" y="684"/>
      <point x="602" y="684" type="curve"/>
      <point x="779" y="682"/>
      <point x="821" y="536"/>
      <point x="822" y="396" type="curve"/>
      <point x="824" y="170"/>
      <point x="687" y="32"/>
      <point x="424" y="31" type="curve"/>
      <point x="308" y="32"/>
      <point x="246" y="62"/>
      <point x="203" y="84" type="curve"/>
      <point x="193" y="343" type="line"/>
      <point x="110" y="343" type="line"/>
      <point x="58" y="48" type="line"/>
      <point x="105" y="47"/>
      <point x="247" y="-14"/>
    </contour>
  </outline>
</glyph>
<glyph name="Germandbls" format="1">
  <advance width="1250"/>
  <outline>
    <contour>
      <point x="760" y="-18" type="curve"/>
      <point x="1010" y="-18"/>
      <point x="1198" y="157"/>
      <point x="1196" y="387" type="curve"/>
      <point x="1194" y="610"/>
      <point x="1021" y="731"/>
      <point x="809" y="775" type="curve"/>
      <point x="1120" y="1169" type="line"/>
      <point x="1129" y="1201" type="line"/>
      <point x="1058" y="1250"/>
      <point x="959" y="1298"/>
      <point x="755" y="1298" type="curve"/>
      <point x="429" y="1298"/>
      <point x="239" y="1064"/>
      <point x="199" y="773" type="curve"/>
      <point x="101" y="59" type="line"/>
      <point x="-33" y="31" type="line"/>
      <point x="-37" y="0" type="line"/>
      <point x="251" y="0" type="line"/>
      <point x="371" y="883" type="line" smooth="yes"/>
      <point x="407" y="1147"/>
      <point x="505" y="1224"/>
      <point x="719" y="1222" type="curve"/>
      <point x="877" y="1221"/>
      <point x="970" y="1151"/>
      <point x="993" y="1127" type="curve"/>
      <point x="678" y="729" type="line"/>
      <point x="674" y="705" type="line"/>
      <point x="852" y="684"/>
      <point x="1026" y="543"/>
      <point x="1028" y="350" type="curve"/>
      <point x="1029" y="204"/>
      <point x="954" y="28"/>
      <point x="775" y="28" type="curve"/>
      <point x="685" y="28"/>
      <point x="605" y="69"/>
      <point x="582" y="108" type="curve"/>
      <point x="566" y="271" type="line"/>
      <point x="477" y="271" type="line"/>
      <point x="440" y="51" type="line"/>
      <point x="490" y="46"/>
      <point x="589" y="-18"/>
    </contour>
  </outline>
</glyph>
<glyph name="Schwa" format="1">
  <advance width="1181"/>
  <outline>
    <contour>
      <point x="525" y="-18" type="curve"/>
      <point x="888" y="-18"/>
      <point x="1153" y="304"/>
      <point x="1149" y="770" type="curve"/>
      <point x="1146" y="1091"/>
      <point x="994" y="1308"/>
      <point x="696" y="1308" type="curve"/>
      <point x="443" y="1308"/>
      <point x="339" y="1243"/>
      <point x="238" y="1238" type="curve"/>
      <point x="197" y="989" type="line"/>
      <point x="282" y="989" type="line"/>
      <point x="347" y="1171" type="line"/>
      <point x="396" y="1212"/>
      <point x="508" y="1262"/>
      <point x="668" y="1262" type="curve"/>
      <point x="872" y="1262"/>
      <point x="984" y="1081"/>
      <point x="986" y="774" type="curve"/>
      <point x="987" y="733"/>
      <point x="985" y="693"/>
      <point x="982" y="656" type="curve"/>
      <point x="135" y="655" type="line"/>
      <point x="115" y="606"/>
      <point x="100" y="508"/>
      <point x="101" y="409" type="curve"/>
      <point x="104" y="137"/>
      <point x="283" y="-18"/>
    </contour>
    <contour>
      <point x="533" y="25" type="curve"/>
      <point x="346" y="25"/>
      <point x="258" y="219"/>
      <point x="257" y="386" type="curve"/>
      <point x="256" y="454"/>
      <point x="268" y="538"/>
      <point x="283" y="598" type="curve"/>
      <point x="979" y="598" type="line"/>
      <point x="932" y="256"/>
      <point x="770" y="25"/>
    </contour>
  </outline>
</glyph>
<glyph name="a.sc" format="1">
  <advance width="1176"/>
  <outline>
    <contour>
      <point x="705" y="1292" type="move" name="top"/>
    </contour>
    <contour>
      <point x="995" y="18" type="move" name="ogonek"/>
    </contour>
    <contour>
      <point x="512" y="0" type="move" name="bottom"/>
    </contour>
    <contour>
      <point x="-86" y="39" type="line"/>
      <point x="-91" y="0" type="line"/>
      <point x="297" y="0" type="line"/>
      <point x="302" y="39" type="line"/>
      <point x="140" y="68" type="line"/>
      <point x="634" y="1105" type="line"/>
      <point x="696" y="1242" type="line"/>
      <point x="654" y="1234" type="line"/>
      <point x="682" y="1050" type="line"/>
      <point x="864" y="69" type="line"/>
      <point x="706" y="39" type="line"/>
      <point x="701" y="0" type="line"/>
      <point x="1149" y="0" type="line"/>
      <point x="1154" y="39" type="line"/>
      <point x="1024" y="67" type="line"/>
      <point x="784" y="1301" type="line"/>
      <point x="658" y="1301" type="line"/>
      <point x="43" y="67" type="line"/>
    </contour>
    <contour>
      <point x="281" y="472" type="line"/>
      <point x="281" y="404" type="line"/>
      <point x="858" y="404" type="line"/>
      <point x="858" y="472" type="line"/>
    </contour>
  </outline>
</glyph>
<glyph name="g.sc" format="1">
  <advance width="1230"/>
  <outline>
    <contour>
      <point x="751" y="1292" type="move" name="top"/>
    </contour>
    <contour>
      <point x="610" y="0" type="move" name="bottom"/>
    </contour>
    <contour>
      <point x="600" y="-16" type="curve"/>
      <point x="714" y="-16"/>
      <point x="817" y="22"/>
      <point x="890" y="45" type="curve"/>
      <point x="957" y="63"/>
      <point x="991" y="72"/>
      <point x="1027" y="75" type="curve"/>
      <point x="1103" y="619" type="line"/>
      <point x="729" y="619" type="line"/>
      <point x="724" y="570" type="line"/>
      <point x="947" y="551" type="line"/>
      <point x="890" y="125" type="line"/>
      <point x="825" y="79"/>
      <point x="708" y="40"/>
      <point x="608" y="40" type="curve"/>
      <point x="306" y="40"/>
      <point x="241" y="333"/>
      <point x="244" y="572" type="curve"/>
      <point x="248" y="914"/>
      <point x="401" y="1251"/>
      <point x="745" y="1251" type="curve"/>
      <point x="904" y="1251"/>
      <point x="968" y="1217"/>
      <point x="1014" y="1188" type="curve"/>
      <point x="1022" y="984" type="line"/>
      <point x="1093" y="984" type="line"/>
      <point x="1141" y="1255" type="line"/>
      <point x="1130" y="1256"/>
      <point x="1119" y="1259"/>
      <point x="1105" y="1262" type="curve"/>
      <point x="1039" y="1276"/>
      <point x="932" y="1306"/>
      <point x="762" y="1306" type="curve"/>
      <point x="380" y="1306"/>
      <point x="83" y="1000"/>
      <point x="79" y="566" type="curve"/>
      <point x="76" y="286"/>
      <point x="181" y="-16"/>
    </contour>
  </outline>
</glyph>
<glyph name="i.sc" format="1">
  <advance width="524"/>
  <outline>
    <contour>
      <point x="-16" y="39" type="line"/>
      <point x="-21" y="0" type="line"/>
      <point x="407" y="0" type="line"/>
      <point x="412" y="39" type="line"/>
      <point x="277" y="68" type="line"/>
      <point x="433" y="1224" type="line"/>
      <point x="567" y="1253" type="line"/>
      <point x="573" y="1292" type="line"/>
      <point x="155" y="1292" type="line"/>
      <point x="149" y="1253" type="line"/>
      <point x="275" y="1224" type="line"/>
      <point x="119" y="68" type="line"/>
    </contour>
  </outline>
</glyph>
<glyph name="m.sc" format="1">
  <advance width="1663"/>
  <outline>
    <contour>
      <point x="913" y="1292" type="move" name="top"/>
    </contour>
    <contour>
      <point x="738" y="0" type="move" name="bottom"/>
    </contour>
    <contour>
      <point x="-30" y="32" type="line"/>
      <point x="-33" y="0" type="line"/>
      <point x="358" y="0" type="line"/>
      <point x="361" y="32" type="line"/>
      <point x="198" y="61" type="line"/>
      <point x="396" y="904" type="line"/>
      <point x="468" y="1220" type="line"/>
      <point x="532" y="891" type="line"/>
      <point x="678" y="0" type="line"/>
      <point x="774" y="0" type="line"/>
      <point x="1197" y="906" type="line"/>
      <point x="1333" y="1211" type="line"/>
      <point x="1313" y="874" type="line"/>
      <point x="1290" y="60" type="line"/>
      <point x="1121" y="32" type="line"/>
      <point x="1117" y="0" type="line"/>
      <point x="1595" y="0" type="line"/>
      <point x="1598" y="31" type="line"/>
      <point x="1448" y="61" type="line"/>
      <point x="1467" y="1237" type="line"/>
      <point x="1613" y="1261" type="line"/>
      <point x="1618" y="1292" type="line"/>
      <point x="1299" y="1292" type="line"/>
      <point x="883" y="415" type="line"/>
      <point x="796" y="206" type="line"/>
      <point x="766" y="417" type="line"/>
      <point x="603" y="1292" type="line"/>
      <point x="255" y="1292" type="line"/>
      <point x="251" y="1261" type="line"/>
      <point x="395" y="1232" type="line"/>
      <point x="106" y="60" type="line"/>
    </contour>
  </outline>
</glyph>
<glyph name="o.sc" format="1">
  <advance width="1204"/>
  <outline>
    <contour>
      <point x="139" y="1292" type="move" name="topleft"/>
    </contour>
    <contour>
      <point x="629" y="647" type="move" name="center"/>
    </contour>
    <contour>
      <point x="539" y="0" type="move" name="bottom"/>
    </contour>
    <contour>
      <point x="718" y="1292" type="move" name="top"/>
    </contour>
    <contour>
      <point x="1283" y="1292" type="move" name="topright"/>
    </contour>
    <contour>
      <point x="1000" y="11" type="move" name="ogonek"/>
    </contour>
    <contour>
      <point x="540" y="-20" type="curve"/>
      <point x="908" y="-20"/>
      <point x="1156" y="317"/>
      <point x="1161" y="740" type="curve"/>
      <point x="1165" y="1099"/>
      <point x="989" y="1308"/>
      <point x="699" y="1308" type="curve"/>
      <point x="331" y="1308"/>
      <point x="82" y="970"/>
      <point x="78" y="548" type="curve"/>
      <point x="74" y="189"/>
      <point x="250" y="-20"/>
    </contour>
    <contour>
      <point x="552" y="35" type="curve"/>
      <point x="334" y="35"/>
      <point x="238" y="273"/>
      <point x="241" y="551" type="curve"/>
      <point x="245" y="920"/>
      <point x="429" y="1252"/>
      <point x="686" y="1252" type="curve"/>
      <point x="904" y="1252"/>
      <point x="1001" y="1015"/>
      <point x="998" y="736" type="curve"/>
      <point x="994" y="367"/>
      <point x="809" y="35"/>
    </contour>
  </outline>
</glyph>
<glyph name="p.sc" format="1">
  <advance width="1012"/>
  <outline>
    <contour>
      <point x="201" y="-144" type="move" name="btm"/>
    </contour>
    <contour>
      <point x="653" y="1292" type="move" name="top"/>
    </contour>
    <contour>
      <point x="-34" y="39" type="line"/>
      <point x="-39" y="0" type="line"/>
      <point x="466" y="0" type="line"/>
      <point x="471" y="39" type="line"/>
      <point x="258" y="72" type="line"/>
      <point x="419" y="1254" type="line"/>
      <point x="382" y="1230" type="line"/>
      <point x="439" y="1238"/>
      <point x="545" y="1250"/>
      <point x="600" y="1250" type="curve"/>
      <point x="790" y="1250"/>
      <point x="880" y="1156"/>
      <point x="879" y="969" type="curve"/>
      <point x="878" y="730"/>
      <point x="756" y="529"/>
      <point x="493" y="529" type="curve"/>
      <point x="443" y="529"/>
      <point x="358" y="538"/>
      <point x="305" y="550" type="curve"/>
      <point x="294" y="485" type="line"/>
      <point x="347" y="476"/>
      <point x="413" y="469"/>
      <point x="491" y="469" type="curve"/>
      <point x="803" y="469"/>
      <point x="1043" y="664"/>
      <point x="1046" y="949" type="curve"/>
      <point x="1048" y="1184"/>
      <point x="903" y="1305"/>
      <point x="627" y="1305" type="curve"/>
      <point x="528" y="1305"/>
      <point x="448" y="1294"/>
      <point x="349" y="1292" type="curve"/>
      <point x="137" y="1292" type="line"/>
      <point x="131" y="1253" type="line"/>
      <point x="257" y="1224" type="line"/>
      <point x="101" y="68" type="line"/>
    </contour>
  </outline>
</glyph>
<glyph name="r.sc" format="1">
  <advance width="1164"/>
  <outline>
    <contour>
      <point x="661" y="1292" type="move" name="top"/>
    </contour>
    <contour>
      <point x="617" y="0" type="move" name="bottom"/>
    </contour>
    <contour>
      <point x="-34" y="39" type="line"/>
      <point x="-39" y="0" type="line"/>
      <point x="436" y="0" type="line"/>
      <point x="441" y="39" type="line"/>
      <point x="258" y="72" type="line"/>
      <point x="419" y="1254" type="line"/>
      <point x="384" y="1228" type="line"/>
      <point x="441" y="1238"/>
      <point x="547" y="1250"/>
      <point x="601" y="1250" type="curve"/>
      <point x="772" y="1250"/>
      <point x="862" y="1156"/>
      <point x="862" y="1000" type="curve"/>
      <point x="863" y="814"/>
      <point x="743" y="640"/>
      <point x="552" y="637" type="curve"/>
      <point x="516" y="637"/>
      <point x="369" y="637"/>
      <point x="324" y="640" type="curve"/>
      <point x="313" y="578" type="line"/>
      <point x="326" y="578"/>
      <point x="508" y="578"/>
      <point x="523" y="578" type="curve"/>
      <point x="602" y="569"/>
      <point x="688" y="385"/>
      <point x="760" y="218" type="curve"/>
      <point x="829" y="60"/>
      <point x="869" y="0"/>
      <point x="899" y="0" type="curve"/>
      <point x="1074" y="0" type="line"/>
      <point x="1079" y="32" type="line"/>
      <point x="990" y="35"/>
      <point x="977" y="111"/>
      <point x="890" y="288" type="curve"/>
      <point x="833" y="404"/>
      <point x="731" y="612"/>
      <point x="615" y="608" type="curve"/>
      <point x="598" y="582" type="line"/>
      <point x="879" y="629"/>
      <point x="1019" y="782"/>
      <point x="1021" y="995" type="curve"/>
      <point x="1024" y="1200"/>
      <point x="896" y="1305"/>
      <point x="605" y="1305" type="curve"/>
      <point x="522" y="1305"/>
      <point x="443" y="1292"/>
      <point x="364" y="1292" type="curve"/>
      <point x="137" y="1292" type="line"/>
      <point x="131" y="1253" type="line"/>
      <point x="257" y="1224" type="line"/>
      <point x="101" y="68" type="line"/>
    </contour>
  </outline>
</glyph>
<glyph name="s.sc" format="1">
  <advance width="888"/>
  <outline>
    <contour>
      <point x="555" y="1292" type="move" name="top"/>
    </contour>
    <contour>
      <point x="373" y="0" type="move" name="bottom"/>
    </contour>
    <contour>
      <point x="353" y="-20" type="curve"/>
      <point x="613" y="-20"/>
      <point x="811" y="128"/>
      <point x="814" y="352" type="curve"/>
      <point x="816" y="541"/>
      <point x="671" y="627"/>
      <point x="530" y="714" type="curve"/>
      <point x="401" y="800"/>
      <point x="280" y="865"/>
      <point x="281" y="1013" type="curve"/>
      <point x="281" y="1162"/>
      <point x="413" y="1251"/>
      <point x="556" y="1251" type="curve"/>
      <point x="664" y="1251"/>
      <point x="722" y="1221"/>
      <point x="760" y="1194" type="curve"/>
      <point x="769" y="1004" type="line"/>
      <point x="830" y="1004" type="line"/>
      <point x="869" y="1239" type="line"/>
      <point x="818" y="1266"/>
      <point x="699" y="1306"/>
      <point x="563" y="1306" type="curve"/>
      <point x="314" y="1306"/>
      <point x="130" y="1174"/>
      <point x="134" y="937" type="curve"/>
      <point x="137" y="751"/>
      <point x="303" y="663"/>
      <point x="436" y="578" type="curve"/>
      <point x="559" y="496"/>
      <point x="663" y="429"/>
      <point x="659" y="283" type="curve"/>
      <point x="653" y="112"/>
      <point x="492" y="35"/>
      <point x="358" y="35" type="curve"/>
      <point x="253" y="35"/>
      <point x="176" y="77"/>
      <point x="126" y="110" type="curve"/>
      <point x="116" y="312" type="line"/>
      <point x="50" y="312" type="line"/>
      <point x="9" y="58" type="line"/>
      <point x="53" y="27"/>
      <point x="213" y="-20"/>
    </contour>
  </outline>
</glyph>
<glyph name="u.sc" format="1">
  <advance width="1238"/>
  <outline>
    <contour>
      <point x="733" y="1292" type="move" name="top"/>
    </contour>
    <contour>
      <point x="733" y="18" type="move" name="ogonek"/>
    </contour>
    <contour>
      <point x="1331" y="1292" type="move" name="topright"/>
    </contour>
    <contour>
      <point x="570" y="0" type="move" name="bottom"/>
    </contour>
    <contour>
      <point x="574" y="-18" type="curve"/>
      <point x="871" y="-18"/>
      <point x="1039" y="162"/>
      <point x="1088" y="532" type="curve"/>
      <point x="1176" y="1233" type="line"/>
      <point x="1300" y="1261" type="line"/>
      <point x="1305" y="1292" type="line"/>
      <point x="966" y="1292" type="line"/>
      <point x="961" y="1261" type="line"/>
      <point x="1096" y="1233" type="line"/>
      <point x="1021" y="532" type="line" smooth="yes"/>
      <point x="984" y="204"/>
      <point x="822" y="59"/>
      <point x="602" y="59" type="curve"/>
      <point x="385" y="59"/>
      <point x="308" y="191"/>
      <point x="307" y="370" type="curve"/>
      <point x="306" y="417"/>
      <point x="310" y="467"/>
      <point x="316" y="519" type="curve"/>
      <point x="408" y="1233" type="line"/>
      <point x="543" y="1261" type="line"/>
      <point x="548" y="1292" type="line"/>
      <point x="133" y="1292" type="line"/>
      <point x="128" y="1261" type="line"/>
      <point x="248" y="1233" type="line"/>
      <point x="155" y="511" type="line" smooth="yes"/>
      <point x="150" y="469"/>
      <point x="149" y="430"/>
      <point x="148" y="393" type="curve"/>
      <point x="150" y="136"/>
      <point x="281" y="-18"/>
    </contour>
  </outline>
</glyph>
<glyph name="x.sc" format="1">
  <advance width="1149"/>
  <outline>
    <contour>
      <point x="712" y="1443" type="move" name="top"/>
    </contour>
    <contour>
      <point x="511" y="0" type="move" name="bottom"/>
    </contour>
    <contour>
      <point x="-52" y="32" type="line"/>
      <point x="-54" y="0" type="line"/>
      <point x="329" y="0" type="line"/>
      <point x="333" y="32" type="line"/>
      <point x="182" y="61" type="line"/>
      <point x="590" y="609" type="line"/>
      <point x="633" y="649" type="line"/>
      <point x="1111" y="1233" type="line"/>
      <point x="1244" y="1261" type="line"/>
      <point x="1247" y="1292" type="line"/>
      <point x="865" y="1292" type="line"/>
      <point x="860" y="1261" type="line"/>
      <point x="1009" y="1231" type="line"/>
      <point x="621" y="719" type="line"/>
      <point x="575" y="678" type="line"/>
      <point x="78" y="59" type="line"/>
    </contour>
    <contour>
      <point x="629" y="32" type="line"/>
      <point x="625" y="0" type="line"/>
      <point x="1086" y="0" type="line"/>
      <point x="1090" y="32" type="line"/>
      <point x="960" y="61" type="line"/>
      <point x="660" y="690" type="line"/>
      <point x="646" y="720" type="line"/>
      <point x="411" y="1233" type="line"/>
      <point x="565" y="1261" type="line"/>
      <point x="570" y="1292" type="line"/>
      <point x="118" y="1292" type="line"/>
      <point x="113" y="1261" type="line"/>
      <point x="239" y="1231" type="line"/>
      <point x="535" y="602" type="line"/>
      <point x="543" y="587" type="line"/>
      <point x="781" y="59" type="line"/>
    </contour>
  </outline>
</glyph>
<glyph name="z.sc" format="1">
  <advance width="1082"/>
  <outline>
    <contour>
      <point x="630" y="1292" type="move" name="top"/>
    </contour>
    <contour>
      <point x="491" y="0" type="move" name="bottom"/>
    </contour>
    <contour>
      <point x="-23" y="28" type="line"/>
      <point x="-8" y="0" type="line"/>
      <point x="919" y="0" type="line"/>
      <point x="999" y="332" type="line"/>
      <point x="934" y="348" type="line"/>
      <point x="822" y="88" type="line"/>
      <point x="149" y="54" type="line"/>
      <point x="303" y="220" type="line"/>
      <point x="1101" y="1265" type="line"/>
      <point x="1089" y="1292" type="line"/>
      <point x="231" y="1292" type="line"/>
      <point x="179" y="979" type="line"/>
      <point x="238" y="973" type="line"/>
      <point x="345" y="1223" type="line"/>
      <point x="928" y="1238" type="line"/>
      <point x="757" y="1055" type="line"/>
    </contour>
  </outline>
</glyph>
